<svg xmlns="http://www.w3.org/2000/svg" width="375" height="375" version="1.0"><defs><clipPath id="a"><path d="M75.14 75.14h224.743v57.989H75.14zm0 0"/></clipPath><clipPath id="b"><path d="M78 231.406h219v68.735H78zm0 0"/></clipPath></defs><path fill="#FFF" d="M-37.5-37.5h450v450h-450z"/><path fill="#FFF" d="M-37.5-37.5h450v450h-450z"/><path fill="#FF0420" d="M-37.5-37.5h450v450h-450z"/><g clip-path="url(#a)"><path fill="#FFF" d="M93.375 75.14h188.363a4.69 4.69 0 014.602 3.797l13.36 48.16.01-.003a4.689 4.689 0 01-4.585 5.945h-215.3a4.686 4.686 0 01-4.684-4.691c0-.567.101-1.114.285-1.618l13.36-48.148 4.5 1.246-4.513-1.254a4.683 4.683 0 014.602-3.433zm184.82 9.376H96.828l-10.86 39.144h203.087l-10.86-39.144"/></g><path fill="#FFF" d="M84.574 123.66h31.805v24.996c0 4.703-2.133 8.95-5.574 12-3.285 2.918-7.774 4.727-12.668 4.727-4.899 0-9.383-1.809-12.668-4.727-3.442-3.05-5.574-7.297-5.574-12V123.66zm22.442 9.38H89.258v15.616c0 1.922.918 3.696 2.394 5.008 1.63 1.445 3.922 2.344 6.485 2.344 2.562 0 4.855-.899 6.488-2.344 1.477-1.312 2.39-3.086 2.39-5.008V133.04m22.251-9.38h31.8v24.996c0 4.703-2.132 8.95-5.574 12-3.285 2.918-7.773 4.727-12.668 4.727-4.894 0-9.383-1.809-12.668-4.727-3.441-3.05-5.574-7.297-5.574-12V123.66zm22.437 9.38h-17.758v15.616c0 1.922.918 3.696 2.39 5.008 1.634 1.445 3.927 2.344 6.49 2.344 2.562 0 4.855-.899 6.488-2.344 1.472-1.312 2.39-3.086 2.39-5.008V133.04m22.247-9.38h31.804v24.996c0 4.703-2.137 8.95-5.574 12-3.285 2.918-7.77 4.727-12.668 4.727-4.895 0-9.383-1.809-12.668-4.727-3.442-3.05-5.574-7.297-5.574-12V123.66zm22.44 9.38h-17.757v15.616c0 1.922.918 3.696 2.39 5.008 1.633 1.445 3.926 2.344 6.489 2.344 2.562 0 4.855-.899 6.488-2.344 1.473-1.312 2.39-3.086 2.39-5.008V133.04m22.247-9.38h31.804v24.996c0 4.703-2.136 8.95-5.574 12-3.285 2.918-7.773 4.727-12.668 4.727-4.894 0-9.383-1.809-12.668-4.727-3.437-3.05-5.574-7.297-5.574-12V123.66zm22.441 9.38h-17.754v15.616c0 1.922.914 3.696 2.39 5.008 1.63 1.445 3.923 2.344 6.485 2.344 2.563 0 4.856-.899 6.485-2.344 1.476-1.312 2.394-3.086 2.394-5.008V133.04m22.25-9.38h31.8v24.996c0 4.703-2.132 8.95-5.573 12-3.282 2.918-7.774 4.727-12.664 4.727h-.004c-4.895 0-9.383-1.809-12.668-4.727-3.442-3.05-5.574-7.297-5.574-12V123.66zm22.438 9.38h-17.758v15.616c0 1.922.918 3.696 2.39 5.008 1.633 1.445 3.926 2.344 6.489 2.344h.004c2.558 0 4.851-.899 6.484-2.344 1.477-1.312 2.39-3.086 2.39-5.008V133.04"/><g clip-path="url(#b)"><path fill="#FFF" d="M92.945 231.484h189.133c3.906 0 7.504 1.391 10.149 3.633 2.855 2.418 4.628 5.817 4.628 9.61v42.199c0 3.789-1.773 7.191-4.628 9.61-2.645 2.237-6.243 3.628-10.149 3.628H92.945c-3.906 0-7.504-1.39-10.144-3.629-2.86-2.418-4.633-5.82-4.633-9.61v-42.198c0-3.793 1.773-7.192 4.633-9.61 2.64-2.242 6.234-3.633 10.144-3.633zm189.133 9.38H92.945c-1.64 0-3.093.53-4.11 1.394-.804.68-1.3 1.558-1.3 2.469v42.199c0 .91.496 1.789 1.3 2.465 1.017.863 2.47 1.398 4.11 1.398h189.133c1.645 0 3.094-.535 4.11-1.398.804-.676 1.304-1.555 1.304-2.465v-42.2c0-.91-.5-1.788-1.305-2.468-1.015-.863-2.464-1.395-4.109-1.395"/></g><path fill="#FFF" d="M103.348 160.223v75.953h-9.364v-75.953h9.364m183.074 0v75.953h-9.363v-75.953h9.363m-170.899 72.433v-26.254h57.829v26.254h-9.368v-16.875h-39.097v16.875h-9.364m75.383 1.879v-42.43h57.824v42.43h-9.363v-33.05H200.27v33.05h-9.364"/><path fill="#FFF" d="M187.355 366.773c-47.902 0-93.007-18.644-126.851-52.562C26.586 280.363 7.94 235.258 7.94 187.355c0-47.902 18.645-93.007 52.563-126.851C94.348 26.586 139.454 7.94 187.355 7.94c47.903 0 93.008 18.645 126.856 52.563 33.918 33.918 52.562 78.95 52.562 126.851 0 47.903-18.644 93.008-52.562 126.856-33.848 33.918-78.953 52.562-126.856 52.562zm0-348.078c-45.03 0-87.414 17.57-119.25 49.41-31.84 31.836-49.41 74.22-49.41 119.25 0 45.036 17.57 87.415 49.41 119.254 31.836 31.84 74.22 49.407 119.25 49.407 45.036 0 87.415-17.567 119.254-49.407 31.84-31.84 49.407-74.218 49.407-119.254 0-45.03-17.567-87.414-49.407-119.25-31.84-31.84-74.218-49.41-119.254-49.41zm0 0"/></svg>